
<svg id="star-filled" xmlns="http://www.w3.org/2000/svg" width="32" height="32" viewBox="0 0 32 32">
  <g id="star">
    <path id="Path" d="M10.6,1.2a2,2,0,0,1,3.67,0l2.04,4.7a2,2,0,0,0,1.645,1.2l5.105.486a2,2,0,0,1,1.134,3.49l-3.844,3.394a2,2,0,0,0-.628,1.934l1.115,5.006a2,2,0,0,1-2.969,2.157l-4.416-2.607a2,2,0,0,0-2.034,0L7.006,23.572a2,2,0,0,1-2.969-2.157L5.152,16.41a2,2,0,0,0-.628-1.934L.679,11.081a2,2,0,0,1,1.134-3.49L6.918,7.1a2,2,0,0,0,1.645-1.2Z" transform="translate(4 4)" fill="#ffc93d"/>
  </g>
</svg>